<svg width="301" height="57" viewBox="0 0 301 57" fill="none" xmlns="http://www.w3.org/2000/svg">
<path d="M43.848 5.6C42.744 7.088 41.688 8.552 40.68 9.992C39.72 11.384 38.64 12.992 37.44 14.816C36.24 16.592 34.848 18.704 33.264 21.152C31.68 23.552 29.736 26.528 27.432 30.08C29.16 32.912 30.744 35.504 32.184 37.856C33.624 40.16 34.968 42.344 36.216 44.408C37.512 46.472 38.76 48.44 39.96 50.312C41.16 52.184 42.384 54.08 43.632 56H32.904C31.8 54.08 30.792 52.304 29.88 50.672C29.016 49.04 28.176 47.456 27.36 45.92C26.544 44.384 25.704 42.848 24.84 41.312C24.024 39.776 23.112 38.096 22.104 36.272C19.944 39.968 17.976 43.376 16.2 46.496C14.472 49.616 12.744 52.784 11.016 56H0.288C1.728 53.696 3.024 51.632 4.176 49.808C5.376 47.984 6.576 46.136 7.776 44.264C8.976 42.392 10.272 40.328 11.664 38.072C13.104 35.816 14.808 33.104 16.776 29.936C14.184 25.904 11.568 21.896 8.928 17.912C6.336 13.928 3.576 9.824 0.648 5.6H11.52C12.24 6.992 12.936 8.336 13.608 9.632C14.328 10.928 15.096 12.296 15.912 13.736C16.728 15.128 17.64 16.64 18.648 18.272C19.656 19.904 20.808 21.752 22.104 23.816C23.976 20.792 25.776 17.84 27.504 14.96C29.232 12.032 31.056 8.912 32.976 5.6H43.848ZM54.8409 39.728C55.0809 43.376 55.8249 45.944 57.0729 47.432C58.3209 48.872 60.2169 49.592 62.7609 49.592C64.6809 49.592 66.4809 49.304 68.1609 48.728C69.8889 48.152 71.3049 47.624 72.4089 47.144V53.12C70.8729 54.512 68.9529 55.472 66.6489 56C64.3449 56.576 62.1129 56.864 59.9529 56.864C58.1769 56.864 56.4249 56.648 54.6969 56.216C52.9689 55.784 51.4089 54.968 50.0169 53.768C48.6729 52.52 47.5689 50.816 46.7049 48.656C45.8889 46.448 45.4809 43.568 45.4809 40.016C45.4809 36.512 45.9129 33.464 46.7769 30.872C47.6409 28.232 48.8169 26.048 50.3049 24.32C51.8409 22.592 53.6169 21.296 55.6329 20.432C57.6969 19.568 59.9289 19.136 62.3289 19.136C64.7769 19.136 66.7689 19.568 68.3049 20.432C69.8889 21.248 71.1129 22.304 71.9769 23.6C72.8889 24.896 73.4889 26.336 73.7769 27.92C74.1129 29.504 74.2809 31.04 74.2809 32.528C74.2809 34.064 74.1609 35.456 73.9209 36.704C73.7289 37.952 73.4649 38.96 73.1289 39.728H54.8409ZM61.0329 24.392C59.1609 24.392 57.6969 25.208 56.6409 26.84C55.6329 28.424 55.0329 30.944 54.8409 34.4H66.7209C66.7209 34.208 66.7209 33.968 66.7209 33.68C66.7689 33.392 66.7929 33.128 66.7929 32.888C66.7929 32.12 66.7209 31.256 66.5769 30.296C66.4329 29.288 66.1449 28.352 65.7129 27.488C65.2809 26.624 64.6809 25.904 63.9129 25.328C63.1929 24.704 62.2329 24.392 61.0329 24.392ZM86.436 19.136C87.396 20.528 88.164 21.752 88.74 22.808C89.316 23.864 89.748 24.944 90.036 26.048C90.756 25.28 91.572 24.488 92.484 23.672C93.396 22.808 94.356 22.064 95.364 21.44C96.42 20.768 97.548 20.216 98.748 19.784C99.948 19.352 101.196 19.136 102.492 19.136C103.692 19.136 104.844 19.352 105.948 19.784C107.1 20.216 108.108 20.936 108.972 21.944C109.836 22.952 110.532 24.32 111.06 26.048C111.588 27.776 111.852 29.936 111.852 32.528C111.852 33.2 111.828 34.184 111.78 35.48C111.78 36.776 111.756 38.168 111.708 39.656C111.66 41.096 111.612 42.488 111.564 43.832C111.564 45.176 111.564 46.208 111.564 46.928C111.564 48.512 111.66 50.048 111.852 51.536C112.092 52.976 112.476 54.176 113.004 55.136L102.996 56.864C102.66 55.76 102.444 54.56 102.348 53.264C102.3 51.968 102.276 50.84 102.276 49.88C102.276 48.536 102.3 47.168 102.348 45.776C102.444 44.336 102.516 42.968 102.564 41.672C102.66 40.328 102.732 39.08 102.78 37.928C102.876 36.728 102.924 35.696 102.924 34.832C102.924 32 102.444 30.056 101.484 29C100.524 27.944 99.204 27.416 97.524 27.416C96.132 27.416 94.836 27.632 93.636 28.064C92.484 28.496 91.452 29.024 90.54 29.648C90.636 30.56 90.684 31.568 90.684 32.672C90.684 33.776 90.684 35.048 90.684 36.488C90.684 38.696 90.684 40.688 90.684 42.464C90.684 44.24 90.684 45.896 90.684 47.432C90.732 48.968 90.756 50.432 90.756 51.824C90.804 53.168 90.852 54.56 90.9 56H81.18C81.228 54.848 81.276 53.552 81.324 52.112C81.372 50.672 81.42 49.16 81.468 47.576C81.564 45.944 81.636 44.288 81.684 42.608C81.732 40.88 81.756 39.224 81.756 37.64C81.756 35.768 81.708 34.256 81.612 33.104C81.516 31.904 81.324 30.872 81.036 30.008C80.748 29.096 80.364 28.28 79.884 27.56C79.404 26.792 78.78 25.928 78.012 24.968L86.436 19.136ZM130.131 20C129.987 21.104 129.867 22.16 129.771 23.168C129.723 24.176 129.675 25.304 129.627 26.552C129.627 27.752 129.603 29.168 129.555 30.8C129.555 32.384 129.555 34.28 129.555 36.488C129.555 38.696 129.555 40.688 129.555 42.464C129.555 44.24 129.555 45.896 129.555 47.432C129.603 48.968 129.627 50.432 129.627 51.824C129.675 53.168 129.723 54.56 129.771 56H120.051C120.099 54.224 120.147 52.664 120.195 51.32C120.291 49.976 120.363 48.56 120.411 47.072C120.459 45.536 120.507 43.832 120.555 41.96C120.603 40.04 120.627 37.664 120.627 34.832C120.627 32.24 120.603 29.816 120.555 27.56C120.507 25.256 120.411 22.736 120.267 20H130.131ZM120.051 8.264C120.051 6.92 120.507 5.768 121.419 4.808C122.379 3.8 123.675 3.296 125.307 3.296C126.699 3.296 127.899 3.704 128.907 4.52C129.963 5.336 130.491 6.44 130.491 7.832C130.491 9.176 129.987 10.304 128.979 11.216C128.019 12.128 126.723 12.584 125.091 12.584C123.699 12.584 122.499 12.224 121.491 11.504C120.531 10.736 120.051 9.656 120.051 8.264ZM146.036 56.864C143.012 56.864 140.564 55.832 138.692 53.768C136.868 51.704 135.956 49.016 135.956 45.704C135.956 42.248 136.964 39.488 138.98 37.424C140.996 35.36 143.684 34.328 147.044 34.328C148.436 34.328 149.828 34.52 151.22 34.904C152.612 35.288 153.86 35.84 154.964 36.56V32.528C154.964 30.272 154.532 28.688 153.668 27.776C152.804 26.864 151.316 26.408 149.204 26.408C147.764 26.408 146.228 26.6 144.596 26.984C143.012 27.32 141.74 27.752 140.78 28.28L138.548 21.368C139.268 21.08 140.132 20.792 141.14 20.504C142.148 20.216 143.228 19.976 144.38 19.784C145.532 19.592 146.708 19.448 147.908 19.352C149.108 19.208 150.212 19.136 151.22 19.136C159.668 19.136 163.892 23.264 163.892 31.52C163.892 32.24 163.844 33.296 163.748 34.688C163.7 36.08 163.628 37.544 163.532 39.08C163.484 40.568 163.412 41.96 163.316 43.256C163.268 44.552 163.244 45.464 163.244 45.992C163.244 47.096 163.412 47.888 163.748 48.368C164.084 48.848 164.708 49.088 165.62 49.088C166.244 49.088 166.964 48.992 167.78 48.8L166.628 55.712C165.86 55.952 165.14 56.144 164.468 56.288C163.844 56.432 163.196 56.504 162.524 56.504C160.748 56.504 159.26 56.024 158.06 55.064C156.86 54.056 156.14 52.64 155.9 50.816C154.94 52.688 153.596 54.176 151.868 55.28C150.14 56.336 148.196 56.864 146.036 56.864ZM149.492 50.24C151.028 50.24 152.324 49.688 153.38 48.584C154.484 47.48 155.036 46.088 155.036 44.408C155.036 42.968 154.604 41.816 153.74 40.952C152.876 40.088 151.676 39.656 150.14 39.656C148.556 39.656 147.308 40.136 146.396 41.096C145.484 42.056 145.028 43.376 145.028 45.056C145.028 46.64 145.412 47.912 146.18 48.872C146.996 49.784 148.1 50.24 149.492 50.24Z" fill="#FFE100"/>
<path d="M200.261 16.4L200.045 20.432C199.757 23.12 199.325 26 198.749 29.072C198.173 32.144 197.525 35.24 196.805 38.36C196.085 41.48 195.317 44.552 194.501 47.576C193.733 50.6 192.965 53.408 192.197 56L182.765 56.864C181.229 52.928 179.789 48.968 178.445 44.984C177.149 40.952 175.925 36.848 174.773 32.672C173.621 28.448 172.517 24.104 171.461 19.64C170.405 15.176 169.373 10.496 168.365 5.6L178.157 4.736C179.357 11.888 180.701 19.16 182.189 26.552C183.725 33.944 185.405 41.048 187.229 47.864C188.093 44.744 188.861 41.6 189.533 38.432C190.205 35.216 190.853 31.952 191.477 28.64C192.101 25.328 192.701 21.944 193.277 18.488C193.853 15.032 194.477 11.456 195.149 7.76L206.021 6.896C207.125 13.664 208.325 20.576 209.621 27.632C210.917 34.64 212.381 41.384 214.013 47.864C215.837 41.288 217.469 34.544 218.909 27.632C220.349 20.72 221.693 13.376 222.941 5.6L232.805 4.736C231.797 9.584 230.765 14.24 229.709 18.704C228.701 23.12 227.621 27.416 226.469 31.592C225.317 35.768 224.069 39.872 222.725 43.904C221.429 47.936 219.989 51.968 218.405 56L208.973 56.864C208.205 54.224 207.389 51.368 206.525 48.296C205.709 45.224 204.917 42.08 204.149 38.864C203.429 35.648 202.757 32.48 202.133 29.36C201.557 26.192 201.101 23.216 200.765 20.432L200.549 16.4H200.261ZM243.7 39.728C243.94 43.376 244.684 45.944 245.932 47.432C247.18 48.872 249.076 49.592 251.62 49.592C253.54 49.592 255.34 49.304 257.02 48.728C258.748 48.152 260.164 47.624 261.268 47.144V53.12C259.732 54.512 257.812 55.472 255.508 56C253.204 56.576 250.972 56.864 248.812 56.864C247.036 56.864 245.284 56.648 243.556 56.216C241.828 55.784 240.268 54.968 238.876 53.768C237.532 52.52 236.428 50.816 235.564 48.656C234.748 46.448 234.34 43.568 234.34 40.016C234.34 36.512 234.772 33.464 235.636 30.872C236.5 28.232 237.676 26.048 239.164 24.32C240.7 22.592 242.476 21.296 244.492 20.432C246.556 19.568 248.788 19.136 251.188 19.136C253.636 19.136 255.628 19.568 257.164 20.432C258.748 21.248 259.972 22.304 260.836 23.6C261.748 24.896 262.348 26.336 262.636 27.92C262.972 29.504 263.14 31.04 263.14 32.528C263.14 34.064 263.02 35.456 262.78 36.704C262.588 37.952 262.324 38.96 261.988 39.728H243.7ZM249.892 24.392C248.02 24.392 246.556 25.208 245.5 26.84C244.492 28.424 243.892 30.944 243.7 34.4H255.58C255.58 34.208 255.58 33.968 255.58 33.68C255.628 33.392 255.652 33.128 255.652 32.888C255.652 32.12 255.58 31.256 255.436 30.296C255.292 29.288 255.004 28.352 254.572 27.488C254.14 26.624 253.54 25.904 252.772 25.328C252.052 24.704 251.092 24.392 249.892 24.392ZM279.687 0.559997C279.543 2.096 279.423 3.704 279.327 5.384C279.279 7.016 279.231 8.816 279.183 10.784C279.183 12.704 279.159 14.84 279.111 17.192C279.111 19.544 279.111 22.16 279.111 25.04C280.551 23.6 282.255 22.256 284.223 21.008C286.191 19.76 288.375 19.136 290.775 19.136C291.927 19.136 293.055 19.352 294.159 19.784C295.311 20.216 296.319 21.008 297.183 22.16C298.047 23.312 298.743 24.872 299.271 26.84C299.799 28.808 300.063 31.328 300.063 34.4C300.063 38.144 299.679 41.432 298.911 44.264C298.191 47.048 297.135 49.376 295.743 51.248C294.399 53.12 292.791 54.536 290.919 55.496C289.047 56.408 286.959 56.864 284.655 56.864C282.543 56.864 280.743 56.456 279.255 55.64C277.767 54.776 276.447 53.648 275.295 52.256L272.631 56H268.815C269.391 53.792 269.751 50.288 269.895 45.488C270.087 40.688 270.183 34.256 270.183 26.192C270.183 22.112 270.159 18.032 270.111 13.952C270.063 9.824 269.967 5.6 269.823 1.28L279.687 0.559997ZM285.879 27.416C284.487 27.416 283.215 27.632 282.063 28.064C280.959 28.448 279.975 28.928 279.111 29.504C279.111 33.536 279.111 37.064 279.111 40.088C279.111 43.112 279.135 45.944 279.183 48.584C280.383 50.744 282.063 51.824 284.223 51.824C286.335 51.824 287.943 50.552 289.047 48.008C290.199 45.464 290.775 41.696 290.775 36.704C290.775 34.736 290.655 33.152 290.415 31.952C290.175 30.752 289.839 29.816 289.407 29.144C288.975 28.472 288.447 28.016 287.823 27.776C287.247 27.536 286.599 27.416 285.879 27.416Z" fill="black"/>
</svg>
