<svg width="344" height="72" viewBox="0 0 344 72" fill="none" xmlns="http://www.w3.org/2000/svg">
<path d="M39.832 71.376C35.512 71.376 31.648 68.832 28.24 63.744C25.312 59.424 22.36 53.568 19.384 46.176C11.992 54.384 6.88 62.736 4.048 71.232C1.456 68.64 0.16 65.976 0.16 63.24C0.16 60.456 1.6 57.288 4.48 53.736C7.36 50.184 11.584 45.768 17.152 40.488C17.008 40.056 16.6 39.048 15.928 37.464C15.304 35.832 14.896 34.776 14.704 34.296C14.512 33.768 14.128 32.784 13.552 31.344C12.976 29.904 12.544 28.896 12.256 28.32C12.016 27.696 11.632 26.76 11.104 25.512C10.576 24.216 10.144 23.256 9.808 22.632C9.472 21.96 9.04 21.12 8.512 20.112C8.032 19.056 7.6 18.168 7.216 17.448C6.352 15.912 5.44 14.472 4.48 13.128C6.4 11.832 8.056 11.184 9.448 11.184C10.888 11.184 12.16 11.736 13.264 12.84C14.416 13.944 15.472 15.48 16.432 17.448C17.872 20.328 19.288 23.784 20.68 27.816C22.12 31.8 22.96 34.104 23.2 34.728C28.528 29.592 32.68 25.128 35.656 21.336C38.68 17.496 40.288 13.968 40.48 10.752C41.68 11.568 42.568 12.624 43.144 13.92C43.768 15.216 44.08 16.464 44.08 17.664C44.08 18.816 43.768 20.064 43.144 21.408C42.568 22.704 41.56 24.144 40.12 25.728C38.728 27.312 37.408 28.704 36.16 29.904C34.96 31.104 33.184 32.784 30.832 34.944C28.48 37.104 26.608 38.856 25.216 40.2C30.592 54.12 36.4 64.392 42.64 71.016C41.872 71.256 40.936 71.376 39.832 71.376ZM67.3979 31.2C64.5179 31.2 62.0699 32.856 60.0539 36.168C58.0859 39.48 56.7659 43.368 56.0939 47.832H58.1099C60.6539 47.832 62.8619 47.472 64.7339 46.752C66.6059 46.032 68.0459 45.096 69.0539 43.944C70.9739 41.736 71.9339 39.24 71.9339 36.456C71.9339 34.872 71.5499 33.6 70.7819 32.64C70.0619 31.68 68.9339 31.2 67.3979 31.2ZM77.5499 60.36C75.3419 63.96 72.9179 66.48 70.2779 67.92C67.6379 69.36 64.5659 70.08 61.0619 70.08C57.6059 70.08 54.5819 68.544 51.9899 65.472C49.3979 62.4 48.1019 58.08 48.1019 52.512C48.1019 46.176 49.8059 40.512 53.2139 35.52C54.8939 33.12 57.0779 31.176 59.7659 29.688C62.5019 28.2 65.5019 27.456 68.7659 27.456C75.9659 27.456 79.5659 30.936 79.5659 37.896C79.5659 42.072 77.9339 45.36 74.6699 47.76C71.4539 50.112 67.7099 51.288 63.4379 51.288C60.6059 51.288 58.0619 51.024 55.8059 50.496C55.7579 50.976 55.7339 51.72 55.7339 52.728C55.7339 61.224 58.2539 65.472 63.2939 65.472C68.0459 65.472 71.9099 63.12 74.8859 58.416C76.6619 58.656 77.5499 59.304 77.5499 60.36ZM121.541 37.68C121.541 39.888 121.061 43.8 120.101 49.416C119.189 54.984 118.733 59.04 118.733 61.584C118.733 64.128 119.045 65.976 119.669 67.128C120.293 68.232 121.349 69.192 122.837 70.008C122.213 70.056 121.325 70.08 120.173 70.08C116.909 70.08 114.581 69.48 113.189 68.28C111.845 67.032 111.173 64.824 111.173 61.656C111.173 59.88 111.653 56.304 112.613 50.928C113.573 45.504 114.053 41.52 114.053 38.976C114.053 35.808 113.093 34.224 111.173 34.224C108.101 34.224 104.909 36.936 101.597 42.36C98.3333 47.784 96.7013 54.312 96.7013 61.944C96.7013 64.968 96.8453 67.32 97.1333 69C95.8853 69.096 95.1413 69.144 94.9013 69.144C90.6773 69.144 88.5653 67.08 88.5653 62.952C88.5653 61.992 89.0693 58.296 90.0773 51.864C91.0853 45.432 91.5893 40.32 91.5893 36.528C91.5893 32.688 91.1813 29.16 90.3653 25.944C93.1973 27.048 95.1653 28.632 96.2693 30.696C97.4213 32.712 97.9973 35.04 97.9973 37.68C97.9973 40.272 97.7093 43.296 97.1333 46.752C98.7173 41.328 101.189 36.768 104.549 33.072C107.957 29.328 111.125 27.456 114.053 27.456C119.045 27.456 121.541 30.864 121.541 37.68ZM142.204 70.08C139.468 69.12 137.548 67.656 136.444 65.688C135.388 63.672 134.86 61.248 134.86 58.416C134.86 55.584 135.244 51.528 136.012 46.248C136.78 40.968 137.164 36.864 137.164 33.936C137.164 31.008 137.02 28.752 136.732 27.168C137.596 27.072 138.292 27.024 138.82 27.024C140.98 27.024 142.54 27.504 143.5 28.464C144.46 29.424 144.94 31.008 144.94 33.216C144.94 33.936 144.34 37.728 143.14 44.592C141.988 51.408 141.388 57.048 141.34 61.512C141.34 65.928 141.628 68.784 142.204 70.08ZM143.284 19.896C139.252 19.896 137.236 18.528 137.236 15.792C137.236 14.832 137.596 13.488 138.316 11.76C139.372 11.568 140.284 11.472 141.052 11.472C145.084 11.472 147.1 12.84 147.1 15.576C147.1 16.536 146.74 17.88 146.02 19.608C144.964 19.8 144.052 19.896 143.284 19.896ZM166.56 40.848C165.168 43.248 164.088 45.72 163.32 48.264C162.6 50.76 162.24 53.16 162.24 55.464C162.24 57.768 162.744 59.736 163.752 61.368C164.808 62.952 166.296 63.744 168.216 63.744C170.904 63.744 173.424 62.28 175.776 59.352C178.128 56.376 179.928 52.8 181.176 48.624C182.472 44.4 183.12 40.512 183.12 36.96C183.12 33.36 182.976 30.408 182.688 28.104C183.84 28.008 184.56 27.96 184.848 27.96C188.928 27.96 190.968 30.048 190.968 34.224C190.968 35.136 190.392 38.856 189.24 45.384C188.088 51.864 187.512 57.072 187.512 61.008C187.512 64.896 188.256 68.352 189.744 71.376C186.72 70.752 184.512 69.432 183.12 67.416C181.776 65.352 181.104 62.4 181.104 58.56C181.104 57.888 181.2 56.592 181.392 54.672C180.096 59.232 177.816 62.904 174.552 65.688C171.288 68.472 168.072 69.864 164.904 69.864C161.784 69.864 159.264 68.688 157.344 66.336C155.424 63.936 154.464 60.648 154.464 56.472C154.464 52.248 155.232 48.144 156.768 44.16C158.352 40.128 160.704 36.648 163.824 33.72C166.992 30.792 170.52 29.328 174.408 29.328C176.088 29.328 177.936 29.664 179.952 30.336C177.12 31.056 174.528 32.376 172.176 34.296C169.824 36.216 167.952 38.4 166.56 40.848Z" fill="#FFE100"/>
<path d="M243.512 69C243.272 69.144 242.576 69.336 241.424 69.576C240.272 69.864 239.192 70.008 238.184 70.008C237.176 70.008 236.672 69.648 236.672 68.928C236 66.096 235.088 61.008 233.936 53.664C232.832 46.272 232.04 41.208 231.56 38.472C230.216 41.544 228.488 45.432 226.376 50.136C221.672 60.552 218.912 66.84 218.096 69C217.856 69.144 217.16 69.336 216.008 69.576C214.856 69.864 213.776 70.008 212.768 70.008C211.76 70.008 211.256 69.648 211.256 68.928C210.536 65.904 209.528 60.072 208.232 51.432C206.936 42.792 205.592 34.944 204.2 27.888C202.808 20.832 201.368 16.152 199.88 13.848C201.896 12.6 203.576 11.976 204.92 11.976C207.512 11.976 209.24 13.512 210.104 16.584C210.968 19.608 212.216 27.864 213.848 41.352C213.944 42.072 214.4 45.192 215.216 50.712C216.032 56.232 216.56 59.904 216.8 61.728C221.888 48.384 226.064 36.552 229.328 26.232C227.984 20.136 226.64 16.008 225.296 13.848C227.312 12.6 228.992 11.976 230.336 11.976C232.928 11.976 234.656 13.512 235.52 16.584C236.384 19.608 237.632 27.864 239.264 41.352C239.36 42.072 239.816 45.192 240.632 50.712C241.448 56.232 241.976 59.904 242.216 61.728C252.776 33.648 258.224 16.704 258.56 10.896C260.624 11.376 262.256 12.072 263.456 12.984C264.656 13.848 265.256 14.832 265.256 15.936C265.256 19.056 260.336 31.464 250.496 53.16C246.608 61.656 244.28 66.936 243.512 69ZM287.546 31.2C284.666 31.2 282.218 32.856 280.202 36.168C278.234 39.48 276.914 43.368 276.242 47.832H278.258C280.802 47.832 283.01 47.472 284.882 46.752C286.754 46.032 288.194 45.096 289.202 43.944C291.122 41.736 292.082 39.24 292.082 36.456C292.082 34.872 291.698 33.6 290.93 32.64C290.21 31.68 289.082 31.2 287.546 31.2ZM297.698 60.36C295.49 63.96 293.066 66.48 290.426 67.92C287.786 69.36 284.714 70.08 281.21 70.08C277.754 70.08 274.73 68.544 272.138 65.472C269.546 62.4 268.25 58.08 268.25 52.512C268.25 46.176 269.954 40.512 273.362 35.52C275.042 33.12 277.226 31.176 279.914 29.688C282.65 28.2 285.65 27.456 288.914 27.456C296.114 27.456 299.714 30.936 299.714 37.896C299.714 42.072 298.082 45.36 294.818 47.76C291.602 50.112 287.858 51.288 283.586 51.288C280.754 51.288 278.21 51.024 275.954 50.496C275.906 50.976 275.882 51.72 275.882 52.728C275.882 61.224 278.402 65.472 283.442 65.472C288.194 65.472 292.058 63.12 295.034 58.416C296.81 58.656 297.698 59.304 297.698 60.36ZM321.17 13.992C321.17 16.152 320.69 20.64 319.73 27.456C318.818 34.272 318.194 39.552 317.858 43.296C319.25 38.256 321.242 34.368 323.834 31.632C326.474 28.848 329.33 27.456 332.402 27.456C335.474 27.456 338.114 28.92 340.322 31.848C342.53 34.776 343.634 38.52 343.634 43.08C343.634 50.232 341.858 56.256 338.306 61.152C334.802 66.048 330.482 68.496 325.346 68.496C323.954 68.496 322.538 68.28 321.098 67.848C324.17 67.08 326.858 65.304 329.162 62.52C331.514 59.688 333.218 56.64 334.274 53.376C335.33 50.064 335.858 46.992 335.858 44.16C335.858 41.328 335.354 38.976 334.346 37.104C333.338 35.184 331.778 34.224 329.666 34.224C327.554 34.224 325.49 35.472 323.474 37.968C321.506 40.464 319.874 43.752 318.578 47.832C317.33 51.912 316.706 55.896 316.706 59.784C316.706 63.624 317.162 67.128 318.074 70.296C315.53 69.48 313.514 67.752 312.026 65.112C310.586 62.472 309.866 59.352 309.866 55.752C309.866 52.104 310.658 45.12 312.242 34.8C313.874 24.48 314.69 16.944 314.69 12.192C314.69 7.44 314.474 3.408 314.042 0.0959988C318.794 1.824 321.17 6.456 321.17 13.992Z" fill="black"/>
</svg>
